<svg width="135" height="135" viewBox="0 0 135 135" fill="none" xmlns="http://www.w3.org/2000/svg">
<path d="M64.1247 102.154L105.727 60.5516C98.7286 57.6278 92.3721 53.3583 87.0185 47.9853C81.6429 42.6306 77.3714 36.2721 74.4466 29.2709L32.8441 70.8734C29.5985 74.1191 27.9729 75.7447 26.5779 77.5334C24.9319 79.6455 23.5194 81.9294 22.3647 84.3453C21.3916 86.3928 20.666 88.5753 19.2147 92.9291L11.5535 115.896C11.2009 116.948 11.1486 118.077 11.4024 119.156C11.6563 120.236 12.2063 121.223 12.9905 122.008C13.7748 122.792 14.7622 123.342 15.8419 123.596C16.9216 123.85 18.0507 123.797 19.1022 123.445L42.0691 115.783C46.4285 114.332 48.6054 113.607 50.6529 112.633C53.0791 111.478 55.3497 110.074 57.4647 108.42C59.2535 107.025 60.8791 105.4 64.1247 102.154ZM117.27 49.0091C121.418 44.861 123.748 39.235 123.748 33.3687C123.748 27.5025 121.418 21.8765 117.27 17.7284C113.122 13.5804 107.496 11.25 101.629 11.25C95.7632 11.25 90.1372 13.5804 85.9891 17.7284L80.9997 22.7178L81.2135 23.3422C83.6715 30.3778 87.6952 36.7634 92.981 42.0172C98.3919 47.4611 105.001 51.5642 112.28 53.9984L117.27 49.0091Z" fill="#FFFEEF"/>
</svg>
