<svg width="734" height="734" viewBox="0 0 734 734" fill="none" xmlns="http://www.w3.org/2000/svg">
<g clip-path="url(#clip0_211_2)">
<path fill-rule="evenodd" clip-rule="evenodd" d="M367 0C569.694 0 734 168.45 734 376.283C734 542.497 628.965 683.499 483.229 733.301C464.622 737.008 458.016 725.257 458.016 715.238C458.016 702.833 458.456 662.318 458.456 611.965C458.456 576.88 446.713 553.981 433.537 542.311C515.268 532.989 601.146 501.167 601.146 356.642C601.146 315.538 586.906 281.996 563.345 255.646C567.162 246.14 579.75 207.867 559.748 156.047C559.748 156.047 528.994 145.964 458.933 194.628C429.61 186.297 398.195 182.106 367 181.959C335.805 182.106 304.427 186.297 275.14 194.628C205.006 145.964 174.178 156.047 174.178 156.047C154.25 207.867 166.838 246.14 170.618 255.646C147.167 281.996 132.817 315.538 132.817 356.642C132.817 500.8 218.512 533.11 300.023 542.615C289.526 552.01 280.021 568.584 276.718 592.916C255.799 602.532 202.657 619.173 169.921 561.664C169.921 561.664 150.507 525.51 113.66 522.867C113.66 522.867 77.8774 522.392 111.164 545.733C111.164 545.733 135.203 557.294 151.901 600.783C151.901 600.783 173.444 667.943 275.544 645.189C275.727 676.641 276.058 706.283 276.058 715.238C276.058 725.184 269.304 736.823 250.991 733.337C105.145 683.608 0 542.534 0 376.283C0 168.45 164.343 0 367 0Z" fill="#FFFEEF"/>
</g>
<defs>
<clipPath id="clip0_211_2">
<rect width="734" height="734" fill="white"/>
</clipPath>
</defs>
</svg>
