<svg width="800" height="800" viewBox="0 0 800 800" fill="none" xmlns="http://www.w3.org/2000/svg">
<path d="M750 50H50V750H750V50Z" fill="#292929"/>
<path d="M475 632.197L526.538 598.092C530.578 610.782 556.155 640.92 588.462 640.92C620.77 640.92 635.77 623.275 635.77 611.575C635.77 579.695 602.78 568.455 586.935 563.057C584.35 562.177 582.225 561.452 580.77 560.82C580.023 560.495 578.895 560.062 577.448 559.51C559.825 552.777 494.807 527.937 494.807 455.932C494.807 376.625 571.345 367.505 588.655 367.505C599.977 367.505 654.422 368.892 681.537 419.847L631.537 454.745C620.577 432.537 602.365 425.202 591.155 425.202C563.463 425.202 557.692 445.502 557.692 454.745C557.692 480.675 587.78 492.297 613.182 502.11C619.83 504.677 626.155 507.12 631.537 509.665C659.23 522.75 700 544.165 700 611.575C700 645.34 671.68 700.005 600.385 700.005C504.615 700.005 479.23 642.507 475 632.197Z" fill="#FFFEEF"/>
<path d="M225 638.963L278.717 604.877C282.925 617.56 299.282 640.945 323.012 640.945C346.745 640.945 358.892 616.57 358.892 604.877V375H424.955V604.877C426.025 636.585 408.44 700 330.83 700C259.475 700 229.811 657.593 225 638.963Z" fill="#FFFEEF"/>
</svg>
