<svg width="734" height="734" viewBox="0 0 734 734" fill="none" xmlns="http://www.w3.org/2000/svg">
<path d="M652.444 0C674.074 0 694.818 8.59243 710.113 23.8871C725.408 39.1817 734 59.9257 734 81.5556V652.444C734 674.074 725.408 694.818 710.113 710.113C694.818 725.408 674.074 734 652.444 734H81.5556C59.9257 734 39.1817 725.408 23.8871 710.113C8.59243 694.818 0 674.074 0 652.444V81.5556C0 59.9257 8.59243 39.1817 23.8871 23.8871C39.1817 8.59243 59.9257 0 81.5556 0H652.444ZM632.056 632.056V415.933C632.056 380.677 618.05 346.864 593.12 321.934C568.189 297.003 534.377 282.998 499.12 282.998C464.459 282.998 424.089 304.202 404.516 336.009V290.746H290.746V632.056H404.516V431.021C404.516 399.622 429.798 373.932 461.197 373.932C476.338 373.932 490.858 379.947 501.565 390.653C512.271 401.359 518.286 415.88 518.286 431.021V632.056H632.056ZM158.218 226.724C176.387 226.724 193.812 219.507 206.659 206.659C219.507 193.812 226.724 176.387 226.724 158.218C226.724 120.294 196.141 89.3033 158.218 89.3033C139.941 89.3033 122.412 96.5639 109.488 109.488C96.5639 122.412 89.3033 139.941 89.3033 158.218C89.3033 196.141 120.294 226.724 158.218 226.724ZM214.899 632.056V290.746H101.944V632.056H214.899Z" fill="#FFFEEF"/>
</svg>
