<svg width="40" height="40" viewBox="0 0 40 40" fill="none" xmlns="http://www.w3.org/2000/svg">
<path d="M34.5346 5.38747C35.0507 4.87084 35.8857 4.87084 36.4018 5.38747C36.9179 5.90409 36.9179 6.74162 36.4018 7.25825L31.1596 12.5056C30.6558 13.0099 29.8455 13.024 29.3241 12.5373L26.6396 10.0318C26.1077 9.53456 26.0777 8.69703 26.5762 8.16278C27.073 7.62852 27.9097 7.60031 28.4434 8.09754L30.1943 9.73204L34.5346 5.38747Z" fill="#83B4FF"/>
<path d="M11.6881 16.9015C13.1466 16.9015 14.3304 15.7166 14.3304 14.2566C14.3304 12.7967 13.1466 11.6118 11.6881 11.6118C10.2296 11.6118 9.0459 12.7967 9.0459 14.2566C9.0459 15.7166 10.2296 16.9015 11.6881 16.9015Z" fill="#83B4FF"/>
<path fill-rule="evenodd" clip-rule="evenodd" d="M5.07027 29.3812C4.79548 28.8046 4.64223 28.161 4.64223 27.4804V13.3747C4.64223 10.9397 6.61333 8.96661 9.04594 8.96661H23.5782C24.3075 8.96661 24.8993 8.37417 24.8993 7.64419C24.8993 6.91422 24.3075 6.32178 23.5782 6.32178H9.04594C5.15482 6.32178 2 9.47971 2 13.3747V27.4804C2 31.3754 5.15482 34.5333 9.04594 34.5333H30.1838C34.0749 34.5333 37.2297 31.3754 37.2297 27.4804V14.6971C37.2297 13.9671 36.6379 13.3747 35.9086 13.3747C35.1793 13.3747 34.5875 13.9671 34.5875 14.6971V27.4804C34.5875 28.1099 34.4554 28.7094 34.2176 29.2507L28.04 18.5709C26.3261 15.6051 21.9453 15.9437 20.7052 19.1369L18.7605 24.1409C18.2885 25.3593 16.6221 25.5003 15.9492 24.3789C14.3973 21.7888 10.7053 21.6248 8.92968 24.0686L5.07027 29.3812ZM23.1678 20.0961C23.6046 18.9694 25.1494 18.8512 25.7536 19.8968L32.3574 31.3137C31.7163 31.6804 30.9747 31.8885 30.1838 31.8885H9.04594C8.27265 31.8885 7.54692 31.6892 6.91454 31.3384L11.0664 25.6238C11.7287 24.7139 13.1062 24.7739 13.6839 25.7401C15.4859 28.7464 19.9548 28.3673 21.2231 25.0983L23.1678 20.0961Z" fill="#FFFEEF"/>
</svg>
