<svg width="161" height="135" viewBox="0 0 161 135" fill="none" xmlns="http://www.w3.org/2000/svg">
<path d="M93.435 129C91.7565 129 90.2688 127.894 89.7728 126.292L82.4867 101.84L61.5058 93.4854C60.0562 92.9131 59.1025 91.5017 59.1025 89.8995C59.1025 88.2973 60.1325 86.924 61.6203 86.3518L82.7156 78.6461L89.7728 55.4145C90.2688 53.8123 91.7565 52.7061 93.435 52.7061C95.1134 52.7061 96.6012 53.8123 97.0971 55.4145L104.192 78.6461L125.288 86.3518C126.776 86.8859 127.767 88.2973 127.806 89.8995C127.844 91.5017 126.852 92.9131 125.402 93.4854L104.421 101.801L97.1352 126.254C96.6393 127.856 95.1516 128.962 93.4731 128.962L93.435 129ZM73.6366 90.0903L87.0263 95.4309C88.0944 95.8505 88.9336 96.766 89.2769 97.8723L93.435 111.834L97.593 97.8723C97.9363 96.766 98.7374 95.8505 99.8437 95.4309L113.233 90.0903L99.7293 85.1693C98.623 84.7497 97.7456 83.8341 97.4023 82.6897L93.435 69.6052L89.4677 82.6897C89.1243 83.8341 88.247 84.7497 87.1407 85.1693L73.6366 90.0903ZM123.953 129C122.808 129 121.855 128.123 121.74 126.979C120.977 119.54 120.672 118.128 114.53 117.556C113.979 117.504 113.466 117.249 113.093 116.84C112.719 116.431 112.511 115.898 112.509 115.344C112.509 114.199 113.386 113.246 114.53 113.131C120.672 112.559 121.015 111.605 121.74 104.281C121.811 103.744 122.074 103.251 122.481 102.894C122.888 102.537 123.411 102.341 123.953 102.341C124.494 102.341 125.017 102.537 125.424 102.894C125.831 103.251 126.095 103.744 126.165 104.281C126.89 111.605 127.233 112.559 133.375 113.131C134.519 113.246 135.397 114.199 135.397 115.344C135.397 116.488 134.558 117.442 133.413 117.556C127.271 118.128 126.928 119.54 126.165 126.979C126.051 128.123 125.097 128.962 123.953 128.962V129Z" fill="#FFFEEF"/>
<path opacity="0.5" fill-rule="evenodd" clip-rule="evenodd" d="M46.6699 29.065C46.213 29.6706 46.0153 30.4328 46.1202 31.1841C46.2252 31.9354 46.6242 32.6143 47.2296 33.0714C51.2905 36.1394 55.8317 41.6065 59.935 47.4179C63.3747 52.2965 66.5323 57.368 69.3923 62.6076C69.7518 63.2761 70.362 63.7744 71.0889 63.9929C71.8158 64.2115 72.5997 64.1323 73.2682 63.7728C73.9367 63.4134 74.435 62.8031 74.6535 62.0762C74.8721 61.3493 74.7929 60.5654 74.4334 59.8969C72.4026 56.1252 68.8221 50.0821 64.6093 44.1191C60.4401 38.214 55.4786 32.1323 50.6763 28.5053C50.0708 28.0484 49.3085 27.8507 48.5572 27.9556C47.8059 28.0606 47.1271 28.4596 46.6699 29.065ZM6.86168 48.7667C6.90576 49.1399 7.02295 49.5008 7.20656 49.8288C7.39017 50.1567 7.63659 50.4453 7.93174 50.6779C8.2269 50.9106 8.56501 51.0828 8.92676 51.1848C9.2885 51.2868 9.66679 51.3165 10.04 51.2722C35.085 48.3114 51.7525 61.4437 58.9647 71.012C59.4214 71.618 60.1002 72.0176 60.8516 72.1231C61.603 72.2287 62.3656 72.0313 62.9715 71.5746C63.5774 71.1179 63.9771 70.4391 64.0826 69.6877C64.1881 68.9363 63.9908 68.1737 63.5341 67.5678C55.4402 56.8297 36.9444 42.3239 9.36415 45.5906C8.61134 45.6804 7.92495 46.0654 7.45574 46.6609C6.98653 47.2564 6.77287 48.0138 6.86168 48.7667Z" fill="#FFFEEF"/>
<path d="M70.8747 22.6965C70.6968 22.3147 69.9455 22.408 69.8687 22.8194C69.6327 24.0148 69.2121 25.4974 68.4819 26.43C67.7517 27.3625 66.4215 28.1264 65.3195 28.6417C64.9377 28.8196 65.031 29.5709 65.4424 29.6477C66.6378 29.8837 68.1174 30.3066 69.053 31.0345C69.9832 31.7616 70.7471 33.0919 71.2647 34.1969C71.4426 34.5788 72.1939 34.4854 72.2707 34.074C72.5067 32.8786 72.9296 31.399 73.6544 30.4657C74.3846 29.5332 75.718 28.7671 76.8199 28.2517C77.2017 28.0738 77.1084 27.3225 76.697 27.2457C75.5016 27.0098 74.019 26.5891 73.0887 25.862C72.1562 25.1318 71.3901 23.7985 70.8747 22.6965Z" fill="#83B4FF"/>
<path d="M32.3824 7.24802C32.0082 6.44506 30.4283 6.64139 30.2667 7.5066C29.7705 10.0204 28.8859 13.1385 27.3503 15.0997C25.8147 17.0608 23.0171 18.6672 20.6996 19.751C19.8966 20.1252 20.0929 21.7051 20.9581 21.8667C23.472 22.3629 26.5836 23.2524 28.5512 24.7831C30.5075 26.3123 32.1139 29.1099 33.2025 31.4339C33.5767 32.2368 35.1567 32.0405 35.3183 31.1753C35.8144 28.6614 36.7039 25.5498 38.2283 23.587C39.7639 21.6259 42.5679 20.0146 44.8854 18.9309C45.6883 18.5567 45.492 16.9767 44.6268 16.8151C42.113 16.319 38.9949 15.4344 37.0386 13.9051C35.0774 12.3695 33.4662 9.56552 32.3824 7.24802Z" fill="#83B4FF"/>
</svg>
