<svg width="43" height="40" viewBox="0 0 43 40" fill="none" xmlns="http://www.w3.org/2000/svg">
<path d="M18.1313 13.8478C18.7784 13.4448 18.9751 12.5928 18.5707 11.9468C18.1662 11.299 17.3168 11.104 16.6715 11.507L11.8106 14.5471C9.79557 15.8078 9.79557 18.7485 11.8106 20.0091L16.6715 23.0493C17.3168 23.4542 18.1662 23.2573 18.5707 22.6113C18.9751 21.9635 18.7784 21.1133 18.1313 20.7085L13.2721 17.6683C12.9853 17.4879 12.9853 17.0684 13.2721 16.888L18.1313 13.8478Z" fill="#83B4FF"/>
<path d="M23.5862 11.9468C23.1817 12.5928 23.3785 13.4448 24.0256 13.8478L28.8847 16.888C29.1715 17.0684 29.1715 17.4879 28.8847 17.6683L24.0256 20.7085C23.3785 21.1133 23.1817 21.9635 23.5862 22.6113C23.9907 23.2573 24.84 23.4542 25.4854 23.0493L30.3463 20.0091C32.3613 18.7485 32.3613 15.8078 30.3463 14.5471L25.4854 11.507C24.84 11.104 23.9907 11.299 23.5862 11.9468Z" fill="#83B4FF"/>
<path fill-rule="evenodd" clip-rule="evenodd" d="M32.1091 2.55566H10.0473C5.98609 2.55566 2.69336 5.85164 2.69336 9.91685V24.6392C2.69336 28.7044 5.98609 32.0004 10.0473 32.0004H32.1091C36.1703 32.0004 39.4631 28.7044 39.4631 24.6392V9.91685C39.4631 5.85164 36.1703 2.55566 32.1091 2.55566ZM10.0473 5.31611H32.1091C34.6481 5.31611 36.7053 7.3754 36.7053 9.91685V24.6392C36.7053 27.1807 34.6481 29.24 32.1091 29.24H10.0473C7.50835 29.24 5.45109 27.1807 5.45109 24.6392V9.91685C5.45109 7.3754 7.50835 5.31611 10.0473 5.31611Z" fill="#FFFEEF"/>
<path d="M17.4013 34.6841C16.6402 34.6841 16.0225 35.3024 16.0225 36.0643C16.0225 36.8262 16.6402 37.4445 17.4013 37.4445H24.7553C25.5164 37.4445 26.1341 36.8262 26.1341 36.0643C26.1341 35.3024 25.5164 34.6841 24.7553 34.6841H17.4013Z" fill="#FFFEEF"/>
</svg>
