<svg width="144" height="144" viewBox="0 0 144 144" fill="none" xmlns="http://www.w3.org/2000/svg">
<path d="M117 9H135V27H117V9ZM117 36H135V54H117V36ZM90 9H108V27H90V9ZM90 36H108V54H90V36Z" fill="#83B4FF"/>
<path d="M126 72V99H18V27H72V18H18C15.6131 18 13.3239 18.9482 11.636 20.636C9.94821 22.3239 9 24.6131 9 27V99C9 101.387 9.94821 103.676 11.636 105.364C13.3239 107.052 15.6131 108 18 108H54V126H36V135H108V126H90V108H126C128.387 108 130.676 107.052 132.364 105.364C134.052 103.676 135 101.387 135 99V72H126ZM81 126H63V108H81V126Z" fill="#FFFEEF"/>
</svg>
